<svg width="36" height="36" viewBox="0 0 36 36" fill="none" xmlns="http://www.w3.org/2000/svg">
<g id="Group">
<path id="Vector" fill-rule="evenodd" clip-rule="evenodd" d="M36 18C36 27.9414 27.9414 36 18 36C8.0586 36 0 27.9414 0 18C0 8.0586 8.0586 0 18 0C27.9414 0 36 8.0586 36 18Z" fill="#FF6154"/>
<path id="Vector_2" fill-rule="evenodd" clip-rule="evenodd" d="M20.4003 18H15.3V12.6H20.4003C21.1164 12.6 21.8032 12.8845 22.3095 13.3908C22.8158 13.8972 23.1003 14.5839 23.1003 15.3C23.1003 16.0161 22.8158 16.7028 22.3095 17.2092C21.8032 17.7155 21.1164 18 20.4003 18ZM20.4003 9H11.7V27H15.3V21.6H20.4003C22.0712 21.6 23.6736 20.9363 24.8551 19.7548C26.0366 18.5733 26.7003 16.9709 26.7003 15.3C26.7003 13.6291 26.0366 12.0267 24.8551 10.8452C23.6736 9.66375 22.0712 9 20.4003 9Z" fill="white"/>
</g>
</svg>
